<svg aria-hidden="true" style="position: absolute; width: 0; height: 0; overflow: hidden;" version="1.1" xmlns="http://www.w3.org/2000/svg" xmlns:xlink="http://www.w3.org/1999/xlink">
<defs>
<symbol id="tablet-mobile-burger" viewBox="0 0 79 32">
<path d="M2.462 1.123c-1.359 0-2.462 1.102-2.462 2.462s1.102 2.462 2.462 2.462h73.846c1.359 0 2.462-1.102 2.462-2.462s-1.102-2.462-2.462-2.462h-73.846zM2.462 25.738c-1.359 0-2.462 1.102-2.462 2.462s1.102 2.462 2.462 2.462h73.846c1.359 0 2.462-1.102 2.462-2.462s-1.102-2.462-2.462-2.462h-73.846z"></path>
</symbol>
<symbol id="tablet-mobile-close" viewBox="0 0 32 32">
<path d="M0.864 0.864c-0.128 0.096-0.224 0.576-0.224 1.024 0 0.608 1.504 2.304 6.624 7.456l6.624 6.656-6.656 6.688c-5.92 5.952-6.624 6.784-6.528 7.584 0.064 0.768 0.256 0.96 1.024 1.024 0.832 0.096 1.632-0.576 7.584-6.528l6.688-6.688 6.688 6.656c5.952 5.952 6.784 6.656 7.584 6.56 0.768-0.064 0.96-0.256 1.024-1.024 0.096-0.832-0.576-1.632-6.56-7.616l-6.656-6.656 6.656-6.656c5.984-5.984 6.656-6.784 6.56-7.616-0.064-0.768-0.256-0.96-1.024-1.024-0.8-0.096-1.632 0.608-7.584 6.56l-6.688 6.656-6.656-6.656c-5.184-5.184-6.816-6.624-7.456-6.624-0.448 0-0.928 0.096-1.024 0.224z"></path>
</symbol>
<symbol id="sign-up-google" viewBox="0 0 31 32">
<path fill="#4285f4" style="fill: var(--color1, #4285f4)" d="M30.368 16.356c0-1.053-0.085-2.112-0.268-3.148h-14.611v5.965h8.367c-0.347 1.924-1.463 3.626-3.097 4.707v3.871h4.992c2.931-2.698 4.616-6.682 4.616-11.395z"></path>
<path fill="#34a853" style="fill: var(--color2, #34a853)" d="M15.488 31.491c4.178 0 7.701-1.372 10.268-3.74l-4.992-3.871c-1.389 0.945-3.182 1.48-5.271 1.48-4.041 0-7.468-2.727-8.697-6.392h-5.151v3.99c2.63 5.231 7.986 8.532 13.843 8.532z"></path>
<path fill="#fbbc04" style="fill: var(--color3, #fbbc04)" d="M6.791 18.968c-0.649-1.924-0.649-4.007 0-5.931v-3.99h-5.146c-2.197 4.377-2.197 9.534 0 13.911l5.146-3.99z"></path>
<path fill="#ea4335" style="fill: var(--color4, #ea4335)" d="M15.488 6.64c2.208-0.034 4.343 0.797 5.942 2.322l4.423-4.423c-2.8-2.63-6.517-4.075-10.365-4.030-5.857 0-11.213 3.301-13.843 8.538l5.146 3.99c1.224-3.671 4.656-6.398 8.698-6.398z"></path>
</symbol>
<symbol id="sign-up-ios" viewBox="0 0 26 32">
<path fill="#fff" style="fill: var(--color5, #fff)" d="M21.381 16.732c0.016-1.206 0.336-2.388 0.931-3.436s1.446-1.93 2.473-2.561c-0.653-0.932-1.513-1.699-2.514-2.24s-2.114-0.842-3.251-0.878c-2.428-0.254-4.78 1.452-6.017 1.452-1.26 0-3.164-1.428-5.213-1.384-1.326 0.043-2.618 0.428-3.751 1.119s-2.067 1.663-2.712 2.823c-2.794 4.838-0.709 11.948 1.967 15.859 1.339 1.915 2.904 4.053 4.953 3.978 2.004-0.084 2.753-1.279 5.173-1.279 2.396 0 3.098 1.279 5.187 1.231 2.152-0.036 3.505-1.925 4.797-3.858 0.963-1.364 1.704-2.872 2.196-4.468-1.25-0.528-2.316-1.413-3.067-2.544s-1.151-2.457-1.152-3.814z"></path>
<path fill="#fff" style="fill: var(--color5, #fff)" d="M17.434 5.043c1.173-1.407 1.751-3.216 1.611-5.043-1.792 0.188-3.447 1.045-4.635 2.399-0.581 0.661-1.026 1.43-1.309 2.263s-0.4 1.714-0.344 2.592c0.896 0.009 1.783-0.185 2.593-0.568s1.523-0.945 2.085-1.643z"></path>
</symbol>
<symbol id="pricing-check" viewBox="0 0 32 32">
<path fill="#748fb5" style="fill: var(--color6, #748fb5)" d="M32 16c0 8.837-7.163 16-16 16s-16-7.163-16-16c0-8.837 7.163-16 16-16s16 7.163 16 16z"></path>
<path fill="#fff" style="fill: var(--color5, #fff)" d="M24.4 8.4l-12.4 12.4-4.4-4.4c-0.533-0.533-1.333-0.533-1.867 0s-0.533 1.333 0 1.867l5.333 5.333c0.267 0.267 0.533 0.4 0.933 0.4s0.667-0.133 0.933-0.4l13.333-13.333c0.533-0.533 0.533-1.333 0-1.867s-1.333-0.533-1.867 0z"></path>
</symbol>
<symbol id="pricing-toggle-down" viewBox="0 0 32 32">
<path fill="none" opacity="0.7" stroke="#fff" style="stroke: var(--color5, #fff)" stroke-linejoin="round" stroke-linecap="round" stroke-miterlimit="10" stroke-width="2.6667" d="M21.333 13.333l-5.333 5.333-5.333-5.333"></path>
</symbol>
<symbol id="pricing-toggle-right" viewBox="0 0 21 32">
<path d="M21.333 15.999c0-0.652-0.283-1.264-0.759-1.638l-17.778-14.001c-0.54-0.428-1.252-0.476-1.84-0.136-0.588 0.346-0.956 1.028-0.956 1.774v28.004c0 0.746 0.368 1.43 0.956 1.774 0.588 0.34 1.298 0.292 1.84-0.136l17.778-14.001c0.476-0.372 0.759-0.984 0.759-1.636 0-0.002 0-0.002 0-0.004 0 0.002 0 0.002 0 0z"></path>
</symbol>
<symbol id="pricing-toggle-up" viewBox="0 0 32 32">
<path fill="none" stroke="#fff" style="stroke: var(--color5, #fff)" stroke-linejoin="round" stroke-linecap="round" stroke-miterlimit="10" stroke-width="2.6667" d="M10.667 18.667l5.333-5.333 5.333 5.333"></path>
</symbol>
<symbol id="mobile-big-toggle-down" viewBox="0 0 54 32">
<path stroke-linejoin="round" stroke-linecap="round" stroke-miterlimit="4" stroke-width="9.6" d="M6.4 5.6l20.8 20.8 20.8-20.8"></path>
</symbol>
<symbol id="mobile-big-toggle-up" viewBox="0 0 54 32">
<path stroke-linejoin="round" stroke-linecap="round" stroke-miterlimit="4" stroke-width="9.6" d="M6.4 26.4l20.8-20.8 20.8 20.8"></path>
</symbol>
<symbol id="homepage-values-chat" viewBox="0 0 32 32">
<path stroke-linejoin="round" stroke-linecap="round" stroke-miterlimit="10" stroke-width="2" d="M1.333 8.667v-3.333c0-0.707 0.281-1.386 0.781-1.886s1.178-0.781 1.886-0.781h24c0.707 0 1.386 0.281 1.886 0.781s0.781 1.178 0.781 1.886v14.667c0 0.707-0.281 1.386-0.781 1.886s-1.178 0.781-1.886 0.781h-10.667l-9.333 6.667v-6.667h-4c-0.707 0-1.386-0.281-1.886-0.781s-0.781-1.178-0.781-1.886v-7.333h16"></path>
<path stroke-linejoin="round" stroke-linecap="round" stroke-miterlimit="10" stroke-width="2" d="M12 7.333l5.333 5.333-5.333 5.333"></path>
</symbol>
<symbol id="homepage-values-circle" viewBox="0 0 32 32">
<path stroke-linejoin="round" stroke-linecap="round" stroke-miterlimit="10" stroke-width="2" d="M16 30.667c8.1 0 14.667-6.566 14.667-14.667s-6.566-14.667-14.667-14.667c-8.1 0-14.667 6.566-14.667 14.667s6.566 14.667 14.667 14.667z"></path>
</symbol>
<symbol id="homepage-values-command" viewBox="0 0 32 32">
<path stroke-linejoin="round" stroke-linecap="round" stroke-miterlimit="10" stroke-width="2" d="M21.333 10.667h-10.667v10.667h10.667v-10.667z"></path>
<path stroke-linejoin="round" stroke-linecap="round" stroke-miterlimit="10" stroke-width="2" d="M2.667 6.667c0-2.2 1.8-4 4-4s4 1.8 4 4c0 1 0 4 0 4s-2.8 0-4 0c-2.2 0-4-1.8-4-4z"></path>
<path stroke-linejoin="round" stroke-linecap="round" stroke-miterlimit="10" stroke-width="2" d="M29.333 6.667c0-2.2-1.8-4-4-4s-4 1.8-4 4c0 1 0 4 0 4s2.8 0 4 0c2.2 0 4-1.8 4-4z"></path>
<path stroke-linejoin="round" stroke-linecap="round" stroke-miterlimit="10" stroke-width="2" d="M29.333 25.333c0 2.2-1.8 4-4 4s-4-1.8-4-4c0-1 0-4 0-4s2.8 0 4 0c2.2 0 4 1.8 4 4z"></path>
<path stroke-linejoin="round" stroke-linecap="round" stroke-miterlimit="10" stroke-width="2" d="M2.667 25.333c0 2.2 1.8 4 4 4s4-1.8 4-4c0-1 0-4 0-4s-2.8 0-4 0c-2.2 0-4 1.8-4 4z"></path>
</symbol>
<symbol id="homepage-values-magnifier" viewBox="0 0 32 32">
<path stroke-linejoin="round" stroke-linecap="round" stroke-miterlimit="10" stroke-width="2" d="M22.091 19.424l7.243 7.243-2.667 2.667-7.243-7.243"></path>
<path stroke-linejoin="round" stroke-linecap="round" stroke-miterlimit="10" stroke-width="2" d="M13.333 24c5.891 0 10.667-4.776 10.667-10.667s-4.776-10.667-10.667-10.667c-5.891 0-10.667 4.776-10.667 10.667s4.776 10.667 10.667 10.667z"></path>
</symbol>
<symbol id="homepage-values-paper" viewBox="0 0 32 32">
<path stroke-linejoin="round" stroke-linecap="round" stroke-miterlimit="10" stroke-width="2" d="M9.333 26v1.333c0 3-3.333 3.333-3.333 3.333s19.771 0 20 0c1.841 0 3.333-1.493 3.333-3.333v-1.333h-20z"></path>
<path stroke-linejoin="round" stroke-linecap="round" stroke-miterlimit="10" stroke-width="2" d="M25.333 22.667v-21.333h-22.667v26c0 1.841 1.493 3.333 3.333 3.333"></path>
<path stroke-linejoin="round" stroke-linecap="round" stroke-miterlimit="10" stroke-width="2" d="M8 8h12"></path>
<path stroke-linejoin="round" stroke-linecap="round" stroke-miterlimit="10" stroke-width="2" d="M8 13.333h12"></path>
<path stroke-linejoin="round" stroke-linecap="round" stroke-miterlimit="10" stroke-width="2" d="M8 18.667h12"></path>
</symbol>
<symbol id="homepage-values-pin" viewBox="0 0 32 32">
<path stroke-linejoin="round" stroke-linecap="round" stroke-miterlimit="10" stroke-width="2" d="M5.333 8v4.667"></path>
<path stroke-linejoin="round" stroke-linecap="round" stroke-miterlimit="10" stroke-width="2" d="M8.667 16h4"></path>
<path stroke-linejoin="round" stroke-linecap="round" stroke-miterlimit="10" stroke-width="2" d="M18.284 18.427l6.098 6.479"></path>
<path stroke-linejoin="round" stroke-linecap="round" stroke-miterlimit="10" stroke-width="2" d="M23.333 27.333h-4"></path>
<path stroke-linejoin="round" stroke-linecap="round" stroke-miterlimit="10" stroke-width="2" d="M5.333 8c1.841 0 3.333-1.492 3.333-3.333s-1.492-3.333-3.333-3.333c-1.841 0-3.333 1.492-3.333 3.333s1.492 3.333 3.333 3.333z"></path>
<path stroke-linejoin="round" stroke-linecap="round" stroke-miterlimit="10" stroke-width="2" d="M16 8c1.841 0 3.333-1.492 3.333-3.333s-1.492-3.333-3.333-3.333c-1.841 0-3.333 1.492-3.333 3.333s1.492 3.333 3.333 3.333z"></path>
<path stroke-linejoin="round" stroke-linecap="round" stroke-miterlimit="10" stroke-width="2" d="M26.667 8c1.841 0 3.333-1.492 3.333-3.333s-1.492-3.333-3.333-3.333c-1.841 0-3.333 1.492-3.333 3.333s1.492 3.333 3.333 3.333z"></path>
<path stroke-linejoin="round" stroke-linecap="round" stroke-miterlimit="10" stroke-width="2" d="M5.333 19.333c1.841 0 3.333-1.492 3.333-3.333s-1.492-3.333-3.333-3.333c-1.841 0-3.333 1.492-3.333 3.333s1.492 3.333 3.333 3.333z"></path>
<path stroke-linejoin="round" stroke-linecap="round" stroke-miterlimit="10" stroke-width="2" d="M16 19.333c1.841 0 3.333-1.492 3.333-3.333s-1.492-3.333-3.333-3.333c-1.841 0-3.333 1.492-3.333 3.333s1.492 3.333 3.333 3.333z"></path>
<path stroke-linejoin="round" stroke-linecap="round" stroke-miterlimit="10" stroke-width="2" d="M26.667 19.333c1.841 0 3.333-1.492 3.333-3.333s-1.492-3.333-3.333-3.333c-1.841 0-3.333 1.492-3.333 3.333s1.492 3.333 3.333 3.333z"></path>
<path stroke-linejoin="round" stroke-linecap="round" stroke-miterlimit="10" stroke-width="2" d="M5.333 30.667c1.841 0 3.333-1.492 3.333-3.333s-1.492-3.333-3.333-3.333c-1.841 0-3.333 1.492-3.333 3.333s1.492 3.333 3.333 3.333z"></path>
<path stroke-linejoin="round" stroke-linecap="round" stroke-miterlimit="10" stroke-width="2" d="M16 30.667c1.841 0 3.333-1.492 3.333-3.333s-1.492-3.333-3.333-3.333c-1.841 0-3.333 1.492-3.333 3.333s1.492 3.333 3.333 3.333z"></path>
<path stroke-linejoin="round" stroke-linecap="round" stroke-miterlimit="10" stroke-width="2" d="M26.667 30.667c1.841 0 3.333-1.492 3.333-3.333s-1.492-3.333-3.333-3.333c-1.841 0-3.333 1.492-3.333 3.333s1.492 3.333 3.333 3.333z"></path>
</symbol>
<symbol id="homepage-values-puzzle-toy" viewBox="0 0 32 32">
<path stroke-linejoin="round" stroke-linecap="round" stroke-miterlimit="10" stroke-width="2" d="M6.66 25.234l9.34 5.392 9.34-5.392"></path>
<path stroke-linejoin="round" stroke-linecap="round" stroke-miterlimit="10" stroke-width="2" d="M12.673 3.295l-9.34 5.392v10.785"></path>
<path stroke-linejoin="round" stroke-linecap="round" stroke-miterlimit="10" stroke-width="2" d="M28.667 19.472v-10.785l-9.34-5.392"></path>
<path stroke-linejoin="round" stroke-linecap="round" stroke-miterlimit="10" stroke-width="2" d="M19.333 3.333v4.667c0 1.105-1.493 2-3.333 2s-3.333-0.895-3.333-2v-4.667"></path>
<path stroke-linejoin="round" stroke-linecap="round" stroke-miterlimit="10" stroke-width="2" d="M16 5.333c1.841 0 3.333-0.895 3.333-2s-1.492-2-3.333-2c-1.841 0-3.333 0.895-3.333 2s1.492 2 3.333 2z"></path>
<path stroke-linejoin="round" stroke-linecap="round" stroke-miterlimit="10" stroke-width="2" d="M3.333 8.687l12.667 7.313 12.667-7.313"></path>
<path stroke-linejoin="round" stroke-linecap="round" stroke-miterlimit="10" stroke-width="2" d="M28.637 19.447l-4.041-2.333c-0.957-0.553-2.478 0.293-3.4 1.887s-0.891 3.333 0.067 3.887l4.041 2.333"></path>
<path stroke-linejoin="round" stroke-linecap="round" stroke-miterlimit="10" stroke-width="2" d="M28.637 19.447c-0.956-0.553-2.478 0.293-3.4 1.887s-0.891 3.333 0.067 3.887c0.957 0.553 2.479-0.292 3.4-1.887s0.89-3.333-0.067-3.887z"></path>
<path stroke-linejoin="round" stroke-linecap="round" stroke-miterlimit="10" stroke-width="2" d="M16 16v14.626"></path>
<path stroke-linejoin="round" stroke-linecap="round" stroke-miterlimit="10" stroke-width="2" d="M6.697 25.22l4.042-2.333c0.956-0.552 0.985-2.293 0.067-3.887s-2.443-2.439-3.4-1.887l-4.042 2.333"></path>
<path stroke-linejoin="round" stroke-linecap="round" stroke-miterlimit="10" stroke-width="2" d="M6.763 21.333c-0.92-1.595-2.442-2.439-3.4-1.887s-0.985 2.292-0.067 3.887c0.919 1.595 2.443 2.439 3.4 1.887s0.987-2.293 0.067-3.887z"></path>
</symbol>
<symbol id="homepage-values-support" viewBox="0 0 32 32">
<path stroke-linejoin="round" stroke-linecap="round" stroke-miterlimit="10" stroke-width="2" d="M13.569 9.798l-5.875-5.875"></path>
<path stroke-linejoin="round" stroke-linecap="round" stroke-miterlimit="10" stroke-width="2" d="M3.922 7.694l5.876 5.875"></path>
<path stroke-linejoin="round" stroke-linecap="round" stroke-miterlimit="10" stroke-width="2" d="M22.202 13.569l5.875-5.875"></path>
<path stroke-linejoin="round" stroke-linecap="round" stroke-miterlimit="10" stroke-width="2" d="M24.305 3.923l-5.875 5.876"></path>
<path stroke-linejoin="round" stroke-linecap="round" stroke-miterlimit="10" stroke-width="2" d="M18.43 22.202l5.875 5.875"></path>
<path stroke-linejoin="round" stroke-linecap="round" stroke-miterlimit="10" stroke-width="2" d="M28.077 24.306l-5.876-5.875"></path>
<path stroke-linejoin="round" stroke-linecap="round" stroke-miterlimit="10" stroke-width="2" d="M9.797 18.431l-5.875 5.875"></path>
<path stroke-linejoin="round" stroke-linecap="round" stroke-miterlimit="10" stroke-width="2" d="M7.694 28.077l5.875-5.876"></path>
<path stroke-linejoin="round" stroke-linecap="round" stroke-miterlimit="10" stroke-width="2" d="M26.37 26.371c5.728-5.728 5.728-15.014 0-20.742s-15.014-5.728-20.742 0c-5.728 5.728-5.728 15.014 0 20.742s15.014 5.728 20.742 0z"></path>
<path stroke-linejoin="round" stroke-linecap="round" stroke-miterlimit="10" stroke-width="2" d="M20.714 20.714c2.603-2.603 2.603-6.825 0-9.428s-6.825-2.603-9.428 0c-2.603 2.603-2.603 6.825 0 9.428s6.825 2.603 9.428 0z"></path>
</symbol>
<symbol id="homepage-testimonials-allstars" viewBox="0 0 237 32">
<path fill="#ff6e30" style="fill: var(--color7, #ff6e30)" d="M16.955 3.099l3.981 8.064 8.901 1.295c0.197 0.028 0.381 0.111 0.533 0.239s0.265 0.296 0.327 0.485c0.061 0.189 0.069 0.391 0.021 0.584s-0.148 0.368-0.291 0.507l-6.442 6.272 1.521 8.865c0.034 0.196 0.012 0.397-0.063 0.581s-0.2 0.343-0.36 0.46c-0.161 0.117-0.351 0.186-0.549 0.201s-0.396-0.027-0.572-0.119l-7.96-4.179-7.962 4.183c-0.176 0.092-0.374 0.133-0.572 0.118s-0.388-0.084-0.549-0.201c-0.161-0.117-0.285-0.276-0.36-0.46s-0.097-0.385-0.064-0.581l1.521-8.86-6.442-6.272c-0.142-0.139-0.243-0.314-0.291-0.507s-0.040-0.395 0.021-0.584c0.061-0.189 0.175-0.357 0.326-0.485s0.337-0.211 0.533-0.239l8.901-1.302 3.981-8.064c0.088-0.178 0.224-0.328 0.393-0.433s0.364-0.161 0.562-0.161c0.199-0 0.393 0.055 0.562 0.16s0.305 0.255 0.394 0.433z"></path>
<path fill="#ff6e30" style="fill: var(--color7, #ff6e30)" d="M68.155 3.099l3.981 8.064 8.901 1.295c0.197 0.028 0.381 0.111 0.533 0.239s0.265 0.296 0.327 0.485c0.061 0.189 0.069 0.391 0.021 0.584s-0.148 0.368-0.291 0.507l-6.442 6.272 1.521 8.865c0.034 0.196 0.012 0.397-0.063 0.581s-0.2 0.343-0.36 0.46c-0.161 0.117-0.351 0.186-0.549 0.201s-0.396-0.027-0.572-0.119l-7.96-4.179-7.962 4.183c-0.176 0.092-0.374 0.133-0.572 0.118s-0.388-0.084-0.549-0.201c-0.16-0.117-0.285-0.276-0.36-0.46s-0.097-0.385-0.064-0.581l1.521-8.86-6.442-6.272c-0.142-0.139-0.243-0.314-0.291-0.507s-0.040-0.395 0.021-0.584c0.061-0.189 0.174-0.357 0.326-0.485s0.337-0.211 0.533-0.239l8.901-1.302 3.981-8.064c0.088-0.178 0.224-0.328 0.393-0.433s0.364-0.161 0.562-0.161c0.199-0 0.393 0.055 0.562 0.16s0.305 0.255 0.394 0.433z"></path>
<path fill="#ff6e30" style="fill: var(--color7, #ff6e30)" d="M119.355 3.099l3.981 8.064 8.901 1.295c0.197 0.028 0.381 0.111 0.534 0.239 0.151 0.128 0.265 0.296 0.326 0.485s0.068 0.391 0.020 0.584c-0.047 0.193-0.148 0.368-0.291 0.507l-6.442 6.272 1.521 8.865c0.034 0.196 0.012 0.397-0.063 0.581s-0.2 0.343-0.36 0.46c-0.161 0.117-0.351 0.186-0.549 0.201s-0.396-0.027-0.572-0.119l-7.96-4.179-7.962 4.183c-0.176 0.092-0.374 0.133-0.572 0.118s-0.388-0.084-0.549-0.201c-0.16-0.117-0.285-0.276-0.36-0.46s-0.097-0.385-0.064-0.581l1.521-8.86-6.442-6.272c-0.142-0.139-0.243-0.314-0.291-0.507s-0.040-0.395 0.021-0.584c0.061-0.189 0.174-0.357 0.326-0.485s0.337-0.211 0.533-0.239l8.901-1.302 3.981-8.064c0.088-0.178 0.224-0.328 0.393-0.433s0.364-0.161 0.562-0.161c0.199-0 0.393 0.055 0.562 0.16s0.305 0.255 0.394 0.433z"></path>
<path fill="#ff6e30" style="fill: var(--color7, #ff6e30)" d="M170.555 3.099l3.981 8.064 8.901 1.295c0.197 0.028 0.381 0.111 0.534 0.239 0.151 0.128 0.265 0.296 0.326 0.485s0.068 0.391 0.020 0.584c-0.047 0.193-0.148 0.368-0.291 0.507l-6.442 6.272 1.521 8.865c0.033 0.196 0.012 0.397-0.063 0.581-0.076 0.184-0.2 0.343-0.361 0.46s-0.351 0.186-0.549 0.201c-0.198 0.014-0.397-0.027-0.572-0.119l-7.96-4.179-7.962 4.183c-0.177 0.092-0.374 0.133-0.572 0.118s-0.388-0.084-0.549-0.201c-0.16-0.117-0.285-0.276-0.36-0.46-0.076-0.184-0.097-0.385-0.064-0.581l1.521-8.86-6.442-6.272c-0.142-0.139-0.243-0.314-0.291-0.507s-0.041-0.395 0.020-0.584c0.061-0.189 0.175-0.357 0.326-0.485 0.152-0.128 0.337-0.211 0.534-0.239l8.901-1.302 3.981-8.064c0.088-0.178 0.224-0.328 0.393-0.433s0.364-0.161 0.562-0.161c0.198-0 0.394 0.055 0.563 0.16s0.305 0.255 0.393 0.433z"></path>
<path fill="#ff6e30" style="fill: var(--color7, #ff6e30)" d="M221.755 3.099l3.981 8.064 8.901 1.295c0.197 0.028 0.381 0.111 0.534 0.239 0.151 0.128 0.265 0.296 0.326 0.485s0.068 0.391 0.020 0.584c-0.047 0.193-0.148 0.368-0.291 0.507l-6.442 6.272 1.521 8.865c0.033 0.196 0.012 0.397-0.063 0.581-0.076 0.184-0.2 0.343-0.361 0.46s-0.351 0.186-0.549 0.201c-0.198 0.014-0.397-0.027-0.572-0.119l-7.96-4.179-7.962 4.183c-0.177 0.092-0.374 0.133-0.572 0.118s-0.388-0.084-0.549-0.201c-0.16-0.117-0.285-0.276-0.36-0.46-0.076-0.184-0.097-0.385-0.064-0.581l1.521-8.86-6.442-6.272c-0.142-0.139-0.243-0.314-0.291-0.507s-0.041-0.395 0.020-0.584c0.061-0.189 0.175-0.357 0.326-0.485 0.152-0.128 0.337-0.211 0.534-0.239l8.901-1.302 3.981-8.064c0.088-0.178 0.224-0.328 0.393-0.433s0.364-0.161 0.562-0.161c0.198-0 0.394 0.055 0.563 0.16s0.305 0.255 0.393 0.433z"></path>
</symbol>
<symbol id="homepage-testimonials-arrow-left" viewBox="0 0 33 32">
<path fill="none" stroke="#6e757c" style="stroke: var(--color8, #6e757c)" stroke-linejoin="round" stroke-linecap="butt" stroke-miterlimit="10" stroke-width="1.6" d="M31.6 16h-30.4"></path>
<path fill="none" stroke="#6e757c" style="stroke: var(--color8, #6e757c)" stroke-linejoin="round" stroke-linecap="round" stroke-miterlimit="10" stroke-width="1.6" d="M6.8 10.4l-5.6 5.6 5.6 5.6"></path>
</symbol>
<symbol id="homepage-testimonials-arrow-right" viewBox="0 0 33 32">
<path stroke-linejoin="round" stroke-linecap="butt" stroke-miterlimit="10" stroke-width="1.6" d="M1.2 16h30.4"></path>
<path stroke-linejoin="round" stroke-linecap="round" stroke-miterlimit="10" stroke-width="1.6" d="M26 10.4l5.6 5.6-5.6 5.6"></path>
</symbol>
<symbol id="homepage-testimonials-star" viewBox="0 0 32 32">
<path fill="#ff6e30" style="fill: var(--color7, #ff6e30)" d="M16.955 3.099l3.981 8.064 8.901 1.295c0.197 0.028 0.381 0.111 0.533 0.239s0.265 0.296 0.327 0.485c0.061 0.189 0.069 0.391 0.021 0.584s-0.148 0.368-0.291 0.507l-6.442 6.272 1.521 8.865c0.034 0.196 0.012 0.397-0.063 0.581s-0.2 0.343-0.36 0.46c-0.161 0.117-0.351 0.186-0.549 0.201s-0.396-0.027-0.572-0.119l-7.96-4.179-7.962 4.183c-0.176 0.092-0.374 0.133-0.572 0.118s-0.388-0.084-0.549-0.201c-0.161-0.117-0.285-0.276-0.36-0.46s-0.097-0.385-0.064-0.581l1.521-8.86-6.442-6.272c-0.142-0.139-0.243-0.314-0.291-0.507s-0.040-0.395 0.021-0.584c0.061-0.189 0.175-0.357 0.326-0.485s0.337-0.211 0.533-0.239l8.901-1.302 3.981-8.064c0.088-0.178 0.224-0.328 0.393-0.433s0.364-0.161 0.562-0.161c0.199-0 0.393 0.055 0.562 0.16s0.305 0.255 0.394 0.433z"></path>
</symbol>
<symbol id="homepage-signup-clock" viewBox="0 0 32 32">
<path stroke-linejoin="round" stroke-linecap="round" stroke-miterlimit="10" stroke-width="2.4" d="M16 1.333v5.333"></path>
<path stroke-linejoin="round" stroke-linecap="round" stroke-miterlimit="10" stroke-width="2.4" d="M30.666 16h-5.333"></path>
<path stroke-linejoin="round" stroke-linecap="round" stroke-miterlimit="10" stroke-width="2.4" d="M16 30.667v-5.333"></path>
<path stroke-linejoin="round" stroke-linecap="round" stroke-miterlimit="10" stroke-width="2.4" d="M1.333 16h5.333"></path>
<path stroke-linejoin="round" stroke-linecap="round" stroke-miterlimit="10" stroke-width="2.4" d="M15.999 30.667c8.1 0 14.667-6.566 14.667-14.667s-6.566-14.667-14.667-14.667c-8.1 0-14.667 6.566-14.667 14.667s6.566 14.667 14.667 14.667z"></path>
<path stroke-linejoin="round" stroke-linecap="round" stroke-miterlimit="10" stroke-width="2.4" d="M10.666 8l5.333 8h5.333"></path>
</symbol>
<symbol id="homepage-signup-flickup" viewBox="0 0 32 32">
<path stroke-linejoin="round" stroke-linecap="round" stroke-miterlimit="10" stroke-width="2.4" d="M7.666 29.51c-2.432-3.969-3.835-8.638-3.835-13.635 0-4.697 1.272-9.223 3.441-13.032"></path>
<path stroke-linejoin="round" stroke-linecap="round" stroke-miterlimit="10" stroke-width="2.4" d="M2 4.498l5.272-1.654 1.651 5.359"></path>
<path stroke-linejoin="round" stroke-linecap="round" stroke-miterlimit="10" stroke-width="2.4" d="M19.558 21.943l3.433 2.052"></path>
<path stroke-linejoin="round" stroke-linecap="round" stroke-miterlimit="10" stroke-width="2.4" d="M30.667 13.586l-2.524-2.245c-1.093-0.973-2.766-0.883-3.748 0.202l-5.074 5.599-6.294-3.763c-0.948-0.567-2.176-0.258-2.743 0.69v0c-0.567 0.948-0.258 2.176 0.69 2.743l8.583 5.131-1.368 2.289c-0.378 0.632-0.172 1.451 0.46 1.829l4.578 2.737c2.003 1.197 5.179-0.787 7.433 0.56"></path>
</symbol>
<symbol id="homepage-signup-video" viewBox="0 0 32 32">
<path stroke-linejoin="round" stroke-linecap="round" stroke-miterlimit="10" stroke-width="2.4" d="M12.666 10.667l8.667 5.333-8.667 5.333v-10.667z"></path>
<path stroke-linejoin="round" stroke-linecap="round" stroke-miterlimit="10" stroke-width="2.4" d="M3.999 4h24c0.707 0 1.386 0.281 1.886 0.781s0.781 1.178 0.781 1.886v18.667c0 0.707-0.281 1.386-0.781 1.886s-1.178 0.781-1.886 0.781h-24c-0.707 0-1.386-0.281-1.886-0.781s-0.781-1.178-0.781-1.886v-18.667c0-0.707 0.281-1.386 0.781-1.886s1.178-0.781 1.886-0.781v0z"></path>
</symbol>
<symbol id="homepage-setup-cloud" viewBox="0 0 32 32">
<path stroke-linejoin="round" stroke-linecap="round" stroke-miterlimit="4" stroke-width="1.5" d="M8.432 12.091c-3.252 0.444-5.765 3.203-5.765 6.576 0 3.681 2.985 6.667 6.667 6.667h14.667c2.945 0 5.333-2.388 5.333-5.333s-2.388-5.333-5.333-5.333c0-4.419-3.581-8-8-8-3.516 0-6.495 2.271-7.568 5.424z"></path>
<path stroke-linejoin="round" stroke-linecap="round" stroke-miterlimit="4" stroke-width="1.5" d="M18.889 17.777l-2.889 2.889-2.889-2.889"></path>
<path stroke-linejoin="round" stroke-linecap="round" stroke-miterlimit="4" stroke-width="1.5" d="M16 14v6.667"></path>
</symbol>
<symbol id="homepage-setup-devices" viewBox="0 0 32 32">
<path stroke-linejoin="round" stroke-linecap="round" stroke-miterlimit="4" stroke-width="1.5" d="M26.667 15v-7.333c0-1.473-1.193-2.667-2.667-2.667h-17.333c-1.473 0-2.667 1.193-2.667 2.667v13.333"></path>
<path stroke-linejoin="round" stroke-linecap="round" stroke-miterlimit="4" stroke-width="1.5" d="M20 25h-16c-0.736 0-1.333-0.597-1.333-1.333v-1.333c0-0.736 0.597-1.333 1.333-1.333h16"></path>
<path stroke-linejoin="round" stroke-linecap="round" stroke-miterlimit="4" stroke-width="1.5" d="M28 29h-6.667c-0.736 0-1.333-0.597-1.333-1.333v-11.333c0-0.736 0.597-1.333 1.333-1.333h6.667c0.736 0 1.333 0.597 1.333 1.333v11.333c0 0.736-0.597 1.333-1.333 1.333z"></path>
<path stroke-linejoin="round" stroke-linecap="round" stroke-miterlimit="4" stroke-width="1.5" d="M20 25h9.333"></path>
</symbol>
<symbol id="homepage-setup-graph" viewBox="0 0 32 32">
<path stroke-linejoin="round" stroke-linecap="round" stroke-miterlimit="4" stroke-width="1.5" d="M26.666 16v10.667"></path>
<path stroke-linejoin="round" stroke-linecap="round" stroke-miterlimit="4" stroke-width="1.5" d="M19.599 19.558v7.107"></path>
<path stroke-linejoin="round" stroke-linecap="round" stroke-miterlimit="4" stroke-width="1.5" d="M5.333 22.667v4"></path>
<path stroke-linejoin="round" stroke-linecap="round" stroke-miterlimit="4" stroke-width="1.5" d="M12.398 18.131v8.533"></path>
<path stroke-linejoin="round" stroke-linecap="round" stroke-miterlimit="4" stroke-width="1.5" d="M21.252 11.345c0.911 0.911 0.911 2.389 0 3.3s-2.389 0.911-3.3 0c-0.911-0.911-0.911-2.389 0-3.3s2.389-0.911 3.3 0z"></path>
<path stroke-linejoin="round" stroke-linecap="round" stroke-miterlimit="4" stroke-width="1.5" d="M28.457 5.34c0.911 0.911 0.911 2.389 0 3.3s-2.389 0.911-3.3 0c-0.911-0.911-0.911-2.389 0-3.3s2.389-0.911 3.3 0z"></path>
<path stroke-linejoin="round" stroke-linecap="round" stroke-miterlimit="4" stroke-width="1.5" d="M6.843 12.537c0.911 0.911 0.911 2.389 0 3.3s-2.389 0.911-3.3 0c-0.911-0.911-0.911-2.389 0-3.3s2.389-0.911 3.3 0"></path>
<path stroke-linejoin="round" stroke-linecap="round" stroke-miterlimit="4" stroke-width="1.5" d="M14.048 6.533c0.911 0.911 0.911 2.389 0 3.3s-2.389 0.911-3.3 0c-0.911-0.911-0.911-2.389 0-3.3s2.389-0.911 3.3 0z"></path>
<path stroke-linejoin="round" stroke-linecap="round" stroke-miterlimit="4" stroke-width="1.5" d="M25.026 8.479l-3.64 3.027"></path>
<path stroke-linejoin="round" stroke-linecap="round" stroke-miterlimit="4" stroke-width="1.5" d="M17.653 11.706l-3.32-2.227"></path>
<path stroke-linejoin="round" stroke-linecap="round" stroke-miterlimit="4" stroke-width="1.5" d="M6.986 12.705l3.627-3.027"></path>
</symbol>
<symbol id="homepage-setup-world" viewBox="0 0 32 32">
<path stroke-linejoin="round" stroke-linecap="round" stroke-miterlimit="4" stroke-width="1.5" d="M2 15l2-2 2 2"></path>
<path stroke-linejoin="round" stroke-linecap="round" stroke-miterlimit="4" stroke-width="1.5" d="M30 17l-2 2-2-2"></path>
<path stroke-linejoin="round" stroke-linecap="round" stroke-miterlimit="4" stroke-width="1.5" d="M6.237 9.053c2.176-3.052 5.729-5.053 9.763-5.053 6.627 0 12 5.373 12 12 0 0.912-0.111 1.797-0.303 2.651"></path>
<path stroke-linejoin="round" stroke-linecap="round" stroke-miterlimit="4" stroke-width="1.5" d="M25.763 9.053c-3.069 1.032-6.345 1.613-9.763 1.613s-6.693-0.581-9.763-1.613"></path>
<path stroke-linejoin="round" stroke-linecap="round" stroke-miterlimit="4" stroke-width="1.5" d="M25.758 22.941c-2.175 3.052-5.728 5.053-9.763 5.053-6.627 0-12-5.373-12-12 0-0.912 0.111-1.797 0.303-2.651"></path>
<path stroke-linejoin="round" stroke-linecap="round" stroke-miterlimit="4" stroke-width="1.5" d="M6.234 22.941c3.069-1.032 6.345-1.613 9.763-1.613s6.693 0.581 9.763 1.613"></path>
<path stroke-linejoin="round" stroke-linecap="round" stroke-miterlimit="4" stroke-width="1.5" d="M16 28c2.761 0 5-5.373 5-12s-2.239-12-5-12c-2.761 0-5 5.373-5 12s2.239 12 5 12z"></path>
</symbol>
<symbol id="homepage-integration-atom" viewBox="0 0 32 32">
<path fill="#fff" style="fill: var(--color5, #fff)" d="M8 1.6h16c2.651 0 4.8 2.149 4.8 4.8v16c0 2.651-2.149 4.8-4.8 4.8h-16c-2.651 0-4.8-2.149-4.8-4.8v-16c0-2.651 2.149-4.8 4.8-4.8z"></path>
<path fill="#a1b0ff" style="fill: var(--color9, #a1b0ff)" d="M16.375 16.775c1.105 0 2-0.895 2-2s-0.895-2-2-2c-1.105 0-2 0.895-2 2s0.895 2 2 2z"></path>
</symbol>
<symbol id="homepage-integration-ball" viewBox="0 0 32 32">
<path fill="#fff" style="fill: var(--color5, #fff)" d="M8 1.6h16c2.651 0 4.8 2.149 4.8 4.8v16c0 2.651-2.149 4.8-4.8 4.8h-16c-2.651 0-4.8-2.149-4.8-4.8v-16c0-2.651 2.149-4.8 4.8-4.8z"></path>
<path fill="#ea4c89" style="fill: var(--color10, #ea4c89)" d="M16 19.776c2.969 0 5.376-2.407 5.376-5.376s-2.407-5.376-5.376-5.376c-2.969 0-5.376 2.407-5.376 5.376s2.407 5.376 5.376 5.376z"></path>
<path fill="#c32361" style="fill: var(--color11, #c32361)" d="M16 8.8c-3.092 0-5.6 2.508-5.6 5.6s2.508 5.6 5.6 5.6c3.085 0 5.6-2.508 5.6-5.6s-2.515-5.6-5.6-5.6zM19.699 11.381c0.689 0.84 1.071 1.89 1.081 2.976-0.158-0.030-1.737-0.352-3.328-0.152-0.036-0.079-0.067-0.164-0.103-0.249-0.099-0.234-0.204-0.464-0.316-0.692 1.761-0.717 2.563-1.749 2.666-1.883zM16 9.626c1.215 0 2.326 0.456 3.171 1.203-0.085 0.121-0.808 1.087-2.508 1.725-0.784-1.439-1.652-2.618-1.786-2.8 0.358-0.085 0.735-0.128 1.124-0.128zM13.965 10.075c0.128 0.17 0.978 1.355 1.774 2.764-2.235 0.595-4.209 0.583-4.422 0.583 0.31-1.482 1.312-2.715 2.648-3.347v-0zM11.214 14.406v-0.146c0.207 0.006 2.527 0.036 4.914-0.68 0.14 0.267 0.267 0.541 0.389 0.814-0.061 0.018-0.127 0.036-0.188 0.055-2.466 0.796-3.778 2.97-3.887 3.152-0.759-0.844-1.227-1.968-1.227-3.195zM16 19.186c-1.063 0.002-2.096-0.353-2.934-1.008 0.085-0.176 1.057-2.047 3.754-2.988 0.012-0.006 0.018-0.006 0.030-0.012 0.674 1.743 0.948 3.207 1.020 3.626-0.577 0.249-1.208 0.383-1.871 0.383v0zM18.666 18.366c-0.049-0.292-0.304-1.689-0.929-3.407 1.5-0.237 2.812 0.152 2.976 0.207-0.206 1.33-0.972 2.478-2.047 3.201v-0z"></path>
</symbol>
<symbol id="homepage-integration-diamond" viewBox="0 0 32 32">
<path fill="#fff" style="fill: var(--color5, #fff)" d="M8 1.6h16c2.651 0 4.8 2.149 4.8 4.8v16c0 2.651-2.149 4.8-4.8 4.8h-16c-2.651 0-4.8-2.149-4.8-4.8v-16c0-2.651 2.149-4.8 4.8-4.8z"></path>
<path fill="#fdb300" style="fill: var(--color12, #fdb300)" d="M13.22 10.418l2.77-0.293 2.77 0.293 2.145 2.879-4.915 5.724-4.915-5.724 2.145-2.879z"></path>
<path fill="#ea6c00" style="fill: var(--color13, #ea6c00)" d="M13.066 13.297l2.924 5.724-4.915-5.724h1.991z"></path>
<path fill="#ea6c00" style="fill: var(--color13, #ea6c00)" d="M18.914 13.297l-2.924 5.724 4.915-5.724h-1.991z"></path>
<path fill="#fdad00" style="fill: var(--color14, #fdad00)" d="M13.066 13.297h5.848l-2.924 5.724-2.924-5.724z"></path>
<path fill="#fdd231" style="fill: var(--color15, #fdd231)" d="M15.99 10.125l-2.77 0.293-0.154 2.879 2.924-3.172z"></path>
<path fill="#fdd231" style="fill: var(--color15, #fdd231)" d="M15.99 10.125l2.77 0.293 0.154 2.879-2.924-3.172z"></path>
<path fill="#fdad00" style="fill: var(--color14, #fdad00)" d="M20.905 13.297l-2.145-2.879 0.154 2.879h1.991z"></path>
<path fill="#fdad00" style="fill: var(--color14, #fdad00)" d="M11.075 13.297l2.145-2.879-0.154 2.879h-1.991z"></path>
<path fill="#feeeb7" style="fill: var(--color16, #feeeb7)" d="M15.99 10.125l-2.924 3.172h5.848l-2.924-3.172z"></path>
</symbol>
<symbol id="homepage-integration-figma" viewBox="0 0 32 32">
<path fill="#fff" style="fill: var(--color5, #fff)" d="M8 1.6h16c2.651 0 4.8 2.149 4.8 4.8v16c0 2.651-2.149 4.8-4.8 4.8h-16c-2.651 0-4.8-2.149-4.8-4.8v-16c0-2.651 2.149-4.8 4.8-4.8z"></path>
<path fill="#0acf83" style="fill: var(--color17, #0acf83)" d="M14.067 20c1.030 0 1.867-0.836 1.867-1.867v-1.867h-1.867c-1.030 0-1.867 0.836-1.867 1.867s0.836 1.867 1.867 1.867z"></path>
<path fill="#a259ff" style="fill: var(--color18, #a259ff)" d="M12.201 14.4c0-1.030 0.836-1.867 1.867-1.867h1.867v3.733h-1.867c-1.030 0-1.867-0.836-1.867-1.867z"></path>
<path fill="#f24e1e" style="fill: var(--color19, #f24e1e)" d="M12.201 10.667c0-1.030 0.836-1.867 1.867-1.867h1.867v3.733h-1.867c-1.030 0-1.867-0.836-1.867-1.867z"></path>
<path fill="#ff7262" style="fill: var(--color20, #ff7262)" d="M15.934 8.8h1.867c1.030 0 1.867 0.836 1.867 1.867s-0.836 1.867-1.867 1.867h-1.867v-3.733z"></path>
<path fill="#1abcfe" style="fill: var(--color21, #1abcfe)" d="M19.667 14.4c0 1.030-0.836 1.867-1.867 1.867s-1.867-0.836-1.867-1.867c0-1.030 0.836-1.867 1.867-1.867s1.867 0.836 1.867 1.867z"></path>
</symbol>
<symbol id="homepage-integration-google" viewBox="0 0 32 32">
<path fill="#fff" style="fill: var(--color5, #fff)" d="M8 1.6h16c2.651 0 4.8 2.149 4.8 4.8v16c0 2.651-2.149 4.8-4.8 4.8h-16c-2.651 0-4.8-2.149-4.8-4.8v-16c0-2.651 2.149-4.8 4.8-4.8z"></path>
<path fill="#4285f4" style="fill: var(--color1, #4285f4)" d="M20.759 14.843c0-0.335-0.027-0.672-0.085-1.002h-4.65v1.898h2.663c-0.11 0.612-0.466 1.154-0.985 1.498v1.232h1.589c0.933-0.859 1.469-2.127 1.469-3.627z"></path>
<path fill="#34a853" style="fill: var(--color2, #34a853)" d="M16.024 19.66c1.33 0 2.451-0.437 3.268-1.19l-1.589-1.232c-0.442 0.301-1.013 0.471-1.677 0.471-1.286 0-2.377-0.868-2.768-2.034h-1.639v1.27c0.837 1.665 2.542 2.715 4.406 2.715z"></path>
<path fill="#fbbc04" style="fill: var(--color3, #fbbc04)" d="M13.255 15.675c-0.207-0.612-0.207-1.275 0-1.888v-1.27h-1.638c-0.699 1.393-0.699 3.034 0 4.427l1.638-1.27z"></path>
<path fill="#ea4335" style="fill: var(--color4, #ea4335)" d="M16.024 11.751c0.703-0.011 1.382 0.254 1.891 0.739l1.408-1.408c-0.891-0.837-2.074-1.297-3.299-1.283-1.864 0-3.569 1.051-4.406 2.717l1.638 1.27c0.389-1.168 1.482-2.036 2.768-2.036z"></path>
</symbol>
<symbol id="homepage-integration-notion" viewBox="0 0 32 32">
<path fill="#fff" style="fill: var(--color5, #fff)" d="M8 1.6h16c2.651 0 4.8 2.149 4.8 4.8v16c0 2.651-2.149 4.8-4.8 4.8h-16c-2.651 0-4.8-2.149-4.8-4.8v-16c0-2.651 2.149-4.8 4.8-4.8z"></path>
<path fill="#000" style="fill: var(--color22, #000)" d="M17.338 9.921l-4.995 0.368c-0.403 0.035-0.543 0.297-0.543 0.612v5.459c0 0.245 0.087 0.455 0.298 0.735l1.174 1.522c0.193 0.245 0.368 0.298 0.736 0.28l5.801-0.35c0.491-0.035 0.631-0.262 0.631-0.647v-6.142c0-0.199-0.079-0.256-0.311-0.426-0.013-0.009-0.026-0.019-0.040-0.029l-1.594-1.12c-0.386-0.28-0.543-0.315-1.157-0.262zM14.14 11.657c-0.474 0.032-0.581 0.039-0.85-0.179l-0.684-0.542c-0.070-0.070-0.035-0.158 0.14-0.175l4.802-0.35c0.403-0.035 0.613 0.105 0.771 0.228l0.824 0.595c0.035 0.017 0.123 0.122 0.017 0.122l-5.020 0.302zM13.588 17.847v-5.214c0-0.227 0.070-0.332 0.28-0.35l5.696-0.332c0.193-0.017 0.281 0.105 0.281 0.332v5.179c0 0.228-0.035 0.42-0.351 0.438l-5.45 0.315c-0.315 0.017-0.456-0.088-0.456-0.368zM18.968 12.912c0.035 0.158 0 0.315-0.158 0.333l-0.263 0.052v3.849c-0.228 0.122-0.438 0.192-0.613 0.192-0.28 0-0.351-0.088-0.561-0.35l-1.718-2.695v2.607l0.544 0.123c0 0 0 0.315-0.438 0.315l-1.209 0.070c-0.035-0.070 0-0.245 0.123-0.28l0.316-0.087v-3.447l-0.438-0.035c-0.035-0.158 0.052-0.385 0.298-0.403l1.297-0.087 1.788 2.73v-2.415l-0.456-0.052c-0.035-0.193 0.105-0.333 0.28-0.35l1.21-0.070z"></path>
</symbol>
<symbol id="homepage-integration-ui" viewBox="0 0 32 32">
<path fill="#fff" style="fill: var(--color5, #fff)" d="M8 1.6h16c2.651 0 4.8 2.149 4.8 4.8v16c0 2.651-2.149 4.8-4.8 4.8h-16c-2.651 0-4.8-2.149-4.8-4.8v-16c0-2.651 2.149-4.8 4.8-4.8z"></path>
<path fill="#fff" style="fill: var(--color5, #fff)" d="M15.104 9.323c0.559-0.304 1.234-0.304 1.793 0l3.24 1.762c0.604 0.328 0.98 0.961 0.98 1.648v3.335c0 0.687-0.376 1.319-0.98 1.648l-3.24 1.762c-0.559 0.304-1.234 0.304-1.793 0l-3.24-1.762c-0.604-0.328-0.979-0.961-0.979-1.648v-3.335c0-0.687 0.376-1.319 0.979-1.648l3.24-1.762z"></path>
<path fill="#2b3036" style="fill: var(--color23, #2b3036)" d="M16.864 13.109v1.295c0 1.141-0.612 1.701-1.579 1.701s-1.558-0.565-1.558-1.674v-1.322c0-0.231 0.175-0.414 0.396-0.414s0.396 0.183 0.396 0.414v1.301c0 0.614 0.293 0.931 0.777 0.931s0.777-0.307 0.777-0.904v-1.328c0-0.231 0.175-0.414 0.396-0.414s0.396 0.183 0.396 0.414zM17.878 16.078c-0.221 0-0.396-0.183-0.396-0.414v-2.555c0-0.231 0.175-0.414 0.396-0.414s0.396 0.183 0.396 0.414v2.555c0 0.231-0.175 0.414-0.396 0.414z"></path>
<path fill="#2d68ff" style="fill: var(--color24, #2d68ff)" d="M20.973 13.891c1.334 0 2.415-1.095 2.415-2.446s-1.081-2.446-2.415-2.446c-1.334 0-2.415 1.095-2.415 2.446s1.081 2.446 2.415 2.446z"></path>
<path fill="#fff" style="fill: var(--color5, #fff)" d="M20.974 12.411c0.408 0 0.711-0.21 0.711-0.569v-0.006c0-0.229-0.111-0.354-0.297-0.456 0.142-0.091 0.234-0.216 0.234-0.423v-0.006c0-0.298-0.258-0.531-0.647-0.531s-0.647 0.235-0.647 0.531v0.006c0 0.207 0.092 0.332 0.234 0.423-0.195 0.094-0.297 0.232-0.297 0.467v0.006c0 0.337 0.303 0.558 0.711 0.558zM20.974 11.239c-0.161 0-0.263-0.102-0.263-0.238v-0.006c0-0.119 0.097-0.224 0.263-0.224s0.263 0.108 0.263 0.227v0.006c0 0.135-0.103 0.235-0.263 0.235zM20.655 11.819c0 0.133 0.118 0.24 0.318 0.24s0.318-0.105 0.318-0.24v-0.006c0-0.149-0.134-0.238-0.318-0.238s-0.318 0.088-0.318 0.238v0.006z"></path>
</symbol>
<symbol id="footer-fb" viewBox="0 0 32 32">
<path fill="#6e757c" style="fill: var(--color8, #6e757c)" d="M32 16.095c0.001-3.058-0.875-6.052-2.523-8.627s-4-4.625-6.777-5.906c-2.777-1.28-5.862-1.738-8.891-1.32s-5.875 1.697-8.2 3.683c-2.325 1.986-4.033 4.596-4.92 7.523s-0.918 6.045-0.088 8.988c0.83 2.943 2.486 5.586 4.772 7.617s5.106 3.364 8.126 3.842v-11.176h-4.062v-4.624h4.062v-3.526c-0.087-0.823 0.007-1.655 0.277-2.438s0.709-1.496 1.285-2.090c0.577-0.594 1.277-1.054 2.051-1.347s1.603-0.412 2.429-0.349c1.2 0.016 2.397 0.12 3.582 0.312v3.942h-2.016c-0.343-0.045-0.693-0.012-1.022 0.096s-0.629 0.289-0.879 0.529-0.442 0.533-0.563 0.858c-0.121 0.325-0.168 0.672-0.136 1.017v3h4.438l-0.71 4.624h-3.736v11.182c3.764-0.595 7.193-2.515 9.668-5.414s3.834-6.585 3.832-10.396z"></path>
</symbol>
<symbol id="footer-googleplay" viewBox="0 0 29 32">
<path fill="#000" style="fill: var(--color22, #000)" d="M0.578 0.513c-0.406 0.487-0.611 1.11-0.574 1.742v27.478c-0.035 0.632 0.17 1.254 0.574 1.742l0.094 0.094 15.387-15.398v-0.365l-15.387-15.387-0.094 0.094z"></path>
<path fill="#000" style="fill: var(--color22, #000)" d="M21.192 21.305l-5.133-5.133v-0.365l5.133-5.122 0.115 0.063 6.082 3.453c1.742 0.981 1.742 2.598 0 3.589l-6.197 3.516z"></path>
<path fill="#000" style="fill: var(--color22, #000)" d="M21.307 21.242l-5.216-5.216-15.513 15.45c0.358 0.294 0.803 0.461 1.265 0.474s0.917-0.128 1.29-0.401l18.141-10.307z"></path>
<path fill="#000" style="fill: var(--color22, #000)" d="M21.307 10.747l-18.173-10.317c-0.37-0.284-0.827-0.431-1.293-0.416s-0.913 0.192-1.263 0.5l15.481 15.481 5.247-5.247z"></path>
<path fill="#000" style="fill: var(--color22, #000)" opacity="0.1" d="M21.192 21.127l-18.058 10.244c-0.36 0.268-0.797 0.413-1.247 0.413s-0.886-0.145-1.247-0.413l-0.094 0.094 0.094 0.094c0.36 0.268 0.797 0.413 1.247 0.413s0.886-0.145 1.247-0.413l18.141-10.307-0.083-0.125z"></path>
<path fill="#000" style="fill: var(--color22, #000)" opacity="0.07" d="M0.578 31.309c-0.405-0.491-0.609-1.117-0.574-1.753v0.177c-0.035 0.632 0.17 1.254 0.574 1.742l0.094-0.094-0.094-0.073z"></path>
<path fill="#000" style="fill: var(--color22, #000)" opacity="0.07" d="M27.389 17.601l-6.197 3.526 0.115 0.115 6.082-3.495c0.357-0.157 0.665-0.406 0.895-0.721s0.37-0.686 0.409-1.073c-0.071 0.358-0.227 0.695-0.453 0.981s-0.518 0.515-0.851 0.667z"></path>
<path fill="#fff" style="fill: var(--color5, #fff)" opacity="0.3" d="M3.134 0.618l24.255 13.76c0.329 0.148 0.619 0.372 0.845 0.652s0.384 0.611 0.459 0.964c-0.037-0.388-0.177-0.76-0.407-1.075s-0.539-0.564-0.897-0.719l-24.255-13.77c-1.711-0.981-3.13-0.167-3.13 1.826v0.177c0-1.982 1.419-2.806 3.13-1.815z"></path>
</symbol>
<symbol id="footer-ig" viewBox="0 0 32 32">
<path fill="#6e757c" style="fill: var(--color8, #6e757c)" d="M24.291 9.703c1.060 0 1.92-0.86 1.92-1.92s-0.86-1.92-1.92-1.92c-1.060 0-1.92 0.86-1.92 1.92s0.86 1.92 1.92 1.92z"></path>
<path fill="#6e757c" style="fill: var(--color8, #6e757c)" d="M16 24c-4.412 0-8-3.588-8-8s3.588-8 8-8c4.412 0 8 3.588 8 8s-3.588 8-8 8zM16 12c-2.206 0-4 1.794-4 4s1.794 4 4 4c2.206 0 4-1.794 4-4s-1.794-4-4-4z"></path>
<path fill="#6e757c" style="fill: var(--color8, #6e757c)" d="M24 32h-16c-4.112 0-8-3.888-8-8v-16c0-4.112 3.888-8 8-8h16c4.112 0 8 3.888 8 8v16c0 4.112-3.888 8-8 8zM8 4c-1.87 0-4 2.13-4 4v16c0 1.906 2.094 4 4 4h16c1.87 0 4-2.13 4-4v-16c0-1.87-2.13-4-4-4h-16z"></path>
</symbol>
<symbol id="footer-ios" viewBox="0 0 26 32">
<path fill="#fff" style="fill: var(--color5, #fff)" d="M21.567 17.030c0.015-1.165 0.325-2.306 0.899-3.319s1.396-1.864 2.389-2.474c-0.63-0.9-1.462-1.641-2.428-2.164s-2.042-0.813-3.14-0.848c-2.345-0.246-4.617 1.403-5.811 1.403-1.217 0-3.056-1.379-5.035-1.337-1.281 0.041-2.529 0.414-3.623 1.081s-1.996 1.606-2.619 2.726c-2.699 4.672-0.685 11.54 1.899 15.318 1.294 1.849 2.805 3.915 4.784 3.842 1.936-0.081 2.659-1.235 4.996-1.235 2.314 0 2.992 1.235 5.010 1.189 2.078-0.035 3.386-1.859 4.633-3.726 0.93-1.318 1.646-2.774 2.121-4.315-1.207-0.51-2.237-1.365-2.962-2.457s-1.112-2.373-1.113-3.684z"></path>
<path fill="#fff" style="fill: var(--color5, #fff)" d="M17.755 5.74c1.133-1.359 1.691-3.106 1.556-4.871-1.731 0.182-3.329 1.009-4.477 2.317-0.561 0.638-0.991 1.381-1.265 2.186s-0.387 1.655-0.332 2.503c0.865 0.009 1.722-0.179 2.504-0.548s1.471-0.912 2.013-1.587z"></path>
</symbol>
<symbol id="footer-tw" viewBox="0 0 32 32">
<path fill="#6e757c" style="fill: var(--color8, #6e757c)" d="M32 6c-1.2 0.6-2.4 0.8-3.8 1 1.4-0.8 2.4-2 2.8-3.6-1.2 0.8-2.6 1.2-4.2 1.6-1.2-1.2-3-2-4.8-2-3.4 0-6.4 3-6.4 6.6 0 0.6 0 1 0.2 1.4-5.4-0.2-10.4-2.8-13.6-6.8-0.6 1-0.8 2-0.8 3.4 0 2.2 1.2 4.2 3 5.4-1 0-2-0.4-3-0.8 0 3.2 2.2 5.8 5.2 6.4-0.6 0.2-1.2 0.2-1.8 0.2-0.4 0-0.8 0-1.2-0.2 0.8 2.6 3.2 4.6 6.2 4.6-2.2 1.8-5 2.8-8.2 2.8-0.6 0-1 0-1.6 0 3 1.8 6.4 3 10 3 12 0 18.6-10 18.6-18.6 0-0.2 0-0.6 0-0.8 1.4-1 2.6-2.2 3.4-3.6z"></path>
</symbol>
<symbol id="features-chat-incoming" viewBox="0 0 32 32">
<path fill="#748fb5" style="fill: var(--color6, #748fb5)" d="M32 16c0 8.837-7.163 16-16 16s-16-7.163-16-16c0-8.837 7.163-16 16-16s16 7.163 16 16z"></path>
<path fill="none" stroke="#fff" style="stroke: var(--color5, #fff)" stroke-linejoin="round" stroke-linecap="round" stroke-miterlimit="10" stroke-width="1.5" d="M8.5 12v-1.5c0-0.398 0.158-0.779 0.439-1.061s0.663-0.439 1.061-0.439h12c0.398 0 0.779 0.158 1.061 0.439s0.439 0.663 0.439 1.061v7.5c0 0.398-0.158 0.779-0.439 1.061s-0.663 0.439-1.061 0.439h-5.5l-4.5 3.5v-3.5h-2c-0.398 0-0.779-0.158-1.061-0.439s-0.439-0.663-0.439-1.061v-3.5h8"></path>
<path fill="none" stroke="#fff" style="stroke: var(--color5, #fff)" stroke-linejoin="round" stroke-linecap="round" stroke-miterlimit="10" stroke-width="1.5" d="M14 12l2.5 2.5-2.5 2.5"></path>
</symbol>
<symbol id="features-chatplus" viewBox="0 0 32 32">
<path fill="#748fb5" style="fill: var(--color6, #748fb5)" d="M32 16c0 8.837-7.163 16-16 16s-16-7.163-16-16c0-8.837 7.163-16 16-16s16 7.163 16 16z"></path>
<path fill="none" stroke="#fff" style="stroke: var(--color5, #fff)" stroke-linejoin="round" stroke-linecap="round" stroke-miterlimit="10" stroke-width="1.5" d="M10.5 15v7.5l4.5-3.5h8.5v-8.5h-8.5"></path>
<path fill="none" stroke="#fff" style="stroke: var(--color5, #fff)" stroke-linejoin="round" stroke-linecap="round" stroke-miterlimit="10" stroke-width="1.5" d="M10.5 8.5v4"></path>
<path fill="none" stroke="#fff" style="stroke: var(--color5, #fff)" stroke-linejoin="round" stroke-linecap="round" stroke-miterlimit="10" stroke-width="1.5" d="M8.5 10.5h4"></path>
</symbol>
<symbol id="features-dot-active" viewBox="0 0 30 32">
<path fill="#ff6e30" style="fill: var(--color7, #ff6e30)" d="M14.769 2.1c8.157 0 14.769 6.612 14.769 14.769s-6.612 14.769-14.769 14.769c-8.157 0-14.769-6.612-14.769-14.769s6.612-14.769 14.769-14.769z"></path>
</symbol>
<symbol id="features-dot-notactive" viewBox="0 0 28 32">
<path fill="#748fb5" style="fill: var(--color6, #748fb5)" opacity="0.25" d="M14.222 3.033c7.855 0 14.222 6.367 14.222 14.222s-6.367 14.222-14.222 14.222c-7.855 0-14.222-6.367-14.222-14.222s6.367-14.222 14.222-14.222z"></path>
</symbol>
<symbol id="features-folders" viewBox="0 0 32 32">
<path fill="#748fb5" style="fill: var(--color6, #748fb5)" d="M32 16c0 8.837-7.163 16-16 16s-16-7.163-16-16c0-8.837 7.163-16 16-16s16 7.163 16 16z"></path>
<path fill="none" stroke="#fff" style="stroke: var(--color5, #fff)" stroke-linejoin="round" stroke-linecap="round" stroke-miterlimit="10" stroke-width="1.5" d="M22.5 22.5h-7c-0.265 0-0.52-0.105-0.707-0.293s-0.293-0.442-0.293-0.707v-7h3.5l1 2h4.5v5c0 0.265-0.105 0.52-0.293 0.707s-0.442 0.293-0.707 0.293z"></path>
<path fill="none" stroke="#fff" style="stroke: var(--color5, #fff)" stroke-linejoin="round" stroke-linecap="round" stroke-miterlimit="10" stroke-width="1.5" d="M12.5 17.5h-3c-0.265 0-0.52-0.105-0.707-0.293s-0.293-0.442-0.293-0.707v-7h3.5l1 2h4.5v1"></path>
<path fill="none" stroke="#fff" style="stroke: var(--color5, #fff)" stroke-linejoin="round" stroke-linecap="round" stroke-miterlimit="10" stroke-width="1.5" d="M20 9.5c0.663 0 1.299 0.263 1.768 0.732s0.732 1.105 0.732 1.768"></path>
<path fill="none" stroke="#fff" style="stroke: var(--color5, #fff)" stroke-linejoin="round" stroke-linecap="round" stroke-miterlimit="10" stroke-width="1.5" d="M12 22.5c-0.663 0-1.299-0.263-1.768-0.732s-0.732-1.105-0.732-1.768"></path>
</symbol>
<symbol id="features-pagination" viewBox="0 0 4 32">
<path fill="#748fb5" style="fill: var(--color6, #748fb5)" opacity="0.25" d="M2.065 0.293c0.76 0 1.376 0.616 1.376 1.376s-0.616 1.376-1.376 1.376c-0.76 0-1.376-0.616-1.376-1.376s0.616-1.376 1.376-1.376z"></path>
<path fill="#748fb5" style="fill: var(--color6, #748fb5)" opacity="0.25" d="M2.065 14.057c0.76 0 1.376 0.616 1.376 1.376s-0.616 1.376-1.376 1.376c-0.76 0-1.376-0.616-1.376-1.376s0.616-1.376 1.376-1.376z"></path>
<path fill="#ff6e30" style="fill: var(--color7, #ff6e30)" d="M2.065 27.82c1.14 0 2.065 0.924 2.065 2.065s-0.924 2.065-2.065 2.065c-1.14 0-2.065-0.924-2.065-2.065s0.924-2.065 2.065-2.065z"></path>
</symbol>
<symbol id="download-android" viewBox="0 0 32 32">
<path d="M2 16c-1.104 0-2 0.896-2 2v10c0 1.104 0.896 2 2 2s2-0.896 2-2v-10c0-1.104-0.896-2-2-2z"></path>
<path d="M30 16c-1.104 0-2 0.896-2 2v10c0 1.104 0.896 2 2 2s2-0.896 2-2v-10c0-1.104-0.896-2-2-2z"></path>
<path d="M26 16h-20v16h20v-16z"></path>
<path d="M6 14h20c0-3.11-1.448-5.852-3.674-7.686l2.506-3.76c0.306-0.458 0.182-1.080-0.278-1.386-0.462-0.306-1.082-0.184-1.386 0.278l-2.506 3.758c-1.398-0.744-2.968-1.204-4.662-1.204s-3.264 0.46-4.662 1.204l-2.506-3.758c-0.306-0.46-0.926-0.584-1.386-0.278s-0.584 0.928-0.278 1.386l2.506 3.76c-2.226 1.834-3.674 4.576-3.674 7.686z"></path>
</symbol>
<symbol id="download-desktop" viewBox="0 0 33 32">
<path d="M31.5 1h-30c-0.552 0-1 0.448-1 1v23c0 0.552 0.448 1 1 1h13v3h-5c-0.552 0-1 0.448-1 1s0.448 1 1 1h14c0.552 0 1-0.448 1-1s-0.448-1-1-1h-5v-3h13c0.552 0 1-0.448 1-1v-23c0-0.552-0.448-1-1-1zM30.5 24h-28v-21h28v21z"></path>
</symbol>
<symbol id="download-ios" viewBox="0 0 33 32">
<path d="M16.442 4.606l0.89-1.574c0.55-0.984 1.776-1.315 2.738-0.753s1.286 1.816 0.737 2.799l-8.581 15.187h6.206c2.012 0 3.139 2.417 2.265 4.092h-18.196c-1.11 0-2.001-0.911-2.001-2.046s0.891-2.046 2.001-2.046h5.102l6.531-11.573-2.040-3.62c-0.55-0.984-0.225-2.226 0.737-2.799 0.962-0.562 2.177-0.23 2.738 0.753l0.874 1.579zM8.724 26.465l-1.924 3.412c-0.55 0.984-1.776 1.315-2.738 0.753s-1.286-1.816-0.737-2.799l1.429-2.529c1.616-0.511 2.93-0.118 3.969 1.163zM25.293 20.277h5.206c1.11 0 2.001 0.91 2.001 2.046s-0.891 2.046-2.001 2.046h-2.892l1.951 3.462c0.55 0.984 0.225 2.226-0.737 2.799-0.962 0.562-2.177 0.23-2.738-0.753-3.287-5.829-5.756-10.191-7.394-13.096-1.677-2.957-0.478-5.924 0.704-6.93 1.314 2.305 3.276 5.784 5.899 10.427z"></path>
</symbol>
<symbol id="download-macos" viewBox="0 0 32 32">
<path d="M24.715 16.994c0.016-1.224 0.341-2.425 0.946-3.49s1.468-1.96 2.512-2.601c-0.663-0.947-1.537-1.726-2.553-2.275s-2.147-0.855-3.302-0.891c-2.465-0.258-4.854 1.475-6.111 1.475-1.28 0-3.214-1.45-5.295-1.406-1.347 0.043-2.659 0.435-3.81 1.137s-2.099 1.689-2.755 2.867c-2.838 4.913-0.721 12.135 1.997 16.107 1.36 1.944 2.95 4.116 5.031 4.040 2.035-0.085 2.796-1.299 5.254-1.299 2.433 0 3.146 1.299 5.268 1.25 2.185-0.037 3.56-1.955 4.872-3.918 0.978-1.386 1.731-2.917 2.231-4.538-1.269-0.537-2.353-1.435-3.115-2.583s-1.169-2.495-1.171-3.874z"></path>
<path d="M20.706 5.122c1.191-1.429 1.778-3.267 1.636-5.122-1.82 0.191-3.501 1.061-4.708 2.436-0.59 0.671-1.042 1.452-1.33 2.298s-0.407 1.741-0.349 2.632c0.91 0.009 1.81-0.188 2.633-0.577s1.547-0.959 2.117-1.669z"></path>
</symbol>
<symbol id="download-windows" viewBox="0 0 33 32">
<path d="M15.175 2.511c5.757-0.881 11.526-1.711 17.294-2.511 0.004 5.056 0 10.107 0.004 15.163-5.765 0.022-11.529 0.11-17.298 0.128-0.004-4.262-0.004-8.521 0-12.78zM0.553 4.551c4.335-0.669 8.689-1.247 13.043-1.791 0.004 4.193 0.004 8.382 0.007 12.575-4.35-0.004-8.7 0.062-13.050 0.051v-10.835zM0.553 16.706c4.347-0.015 8.693 0.055 13.039 0.047 0 4.204 0.011 8.408 0.004 12.611-4.343-0.644-8.693-1.206-13.043-1.795v-10.864zM15.149 16.874h17.32c0.007 5.041 0 10.082 0 15.126-5.757-0.863-11.526-1.663-17.294-2.445-0.007-4.226-0.018-8.452-0.026-12.681z"></path>
</symbol>
<symbol id="about-happy" viewBox="0 0 31 32">
<path stroke-linejoin="round" stroke-linecap="round" stroke-miterlimit="10" stroke-width="1.3061" d="M23.402 18.843c-0.307 1.828-1.252 3.487-2.667 4.684s-3.208 1.854-5.061 1.854c-1.853 0-3.646-0.657-5.061-1.854s-2.36-2.857-2.667-4.684"></path>
<path stroke-linejoin="round" stroke-linecap="round" stroke-miterlimit="10" stroke-width="1.3061" d="M23.51 14.271c0-0.693-0.275-1.357-0.765-1.847s-1.154-0.765-1.847-0.765-1.357 0.275-1.847 0.765c-0.49 0.49-0.765 1.154-0.765 1.847"></path>
<path stroke-linejoin="round" stroke-linecap="round" stroke-miterlimit="10" stroke-width="1.3061" d="M13.061 14.271c0-0.693-0.275-1.357-0.765-1.847s-1.154-0.765-1.847-0.765-1.357 0.275-1.847 0.765c-0.49 0.49-0.765 1.154-0.765 1.847"></path>
<path stroke-linejoin="round" stroke-linecap="round" stroke-miterlimit="10" stroke-width="1.3061" d="M15.673 29.945c7.574 0 13.714-6.14 13.714-13.714s-6.14-13.714-13.714-13.714c-7.574 0-13.714 6.14-13.714 13.714s6.14 13.714 13.714 13.714z"></path>
</symbol>
<symbol id="about-photo-editor" viewBox="0 0 31 32">
<path stroke-linejoin="round" stroke-linecap="round" stroke-miterlimit="10" stroke-width="1.3061" d="M15.673 20.149c5.049 0 9.143-4.093 9.143-9.143s-4.093-9.143-9.143-9.143c-5.049 0-9.143 4.093-9.143 9.143s4.093 9.143 9.143 9.143z"></path>
<path stroke-linejoin="round" stroke-linecap="round" stroke-miterlimit="10" stroke-width="1.3061" d="M10.449 30.598c5.049 0 9.143-4.093 9.143-9.143s-4.093-9.143-9.143-9.143c-5.049 0-9.143 4.093-9.143 9.143s4.093 9.143 9.143 9.143z"></path>
<path stroke-linejoin="round" stroke-linecap="round" stroke-miterlimit="10" stroke-width="1.3061" d="M20.898 30.598c5.049 0 9.143-4.093 9.143-9.143s-4.093-9.143-9.143-9.143c-5.049 0-9.143 4.093-9.143 9.143s4.093 9.143 9.143 9.143z"></path>
</symbol>
<symbol id="about-vr" viewBox="0 0 31 32">
<path stroke-linejoin="round" stroke-linecap="round" stroke-miterlimit="10" stroke-width="1.3061" d="M7.911 18.146c1.597 3.52 4.677 5.921 7.762 5.921s6.166-2.401 7.762-5.921"></path>
<path stroke-linejoin="round" stroke-linecap="round" stroke-miterlimit="10" stroke-width="1.3061" d="M23.925 7.088c-0.739-1.563-1.908-2.883-3.368-3.808s-3.154-1.416-4.883-1.416c-1.729 0-3.422 0.491-4.883 1.416s-2.629 2.246-3.368 3.808"></path>
<path stroke-linejoin="round" stroke-linecap="round" stroke-miterlimit="10" stroke-width="1.3061" d="M7.837 11.006h15.673"></path>
<path stroke-linejoin="round" stroke-linecap="round" stroke-miterlimit="10" stroke-width="1.3061" d="M27.429 16.231v-7.184c0-0.52-0.206-1.018-0.574-1.385s-0.866-0.574-1.385-0.574h-19.592c-0.52 0-1.018 0.206-1.385 0.574s-0.574 0.866-0.574 1.385v7.184c0 0.52 0.206 1.018 0.574 1.385s0.866 0.574 1.385 0.574h6.531l1.384-2.215c0.2-0.319 0.477-0.582 0.806-0.764s0.699-0.278 1.075-0.278c0.376 0 0.746 0.096 1.075 0.278s0.607 0.445 0.806 0.764l1.384 2.215h6.531c0.52 0 1.018-0.206 1.385-0.574s0.574-0.866 0.574-1.385z"></path>
<path stroke-linejoin="round" stroke-linecap="round" stroke-miterlimit="10" stroke-width="1.3061" d="M11.102 22.318v2.121c-0.001 0.837-0.269 1.653-0.767 2.326s-1.198 1.17-1.999 1.416l-5.724 1.763"></path>
<path stroke-linejoin="round" stroke-linecap="round" stroke-miterlimit="10" stroke-width="1.3061" d="M28.735 29.945l-5.724-1.763c-0.8-0.246-1.501-0.743-1.999-1.416s-0.767-1.489-0.767-2.326v-2.121"></path>
</symbol>
</defs>
</svg>
